<svg xmlns="http://www.w3.org/2000/svg" xmlns:xlink="http://www.w3.org/1999/xlink" width="64" height="64" enable-background="new"><defs><linearGradient id="prefix__b"><stop offset="0" stop-color="#14c412"/><stop offset="1" stop-color="#2fa92d"/></linearGradient><linearGradient id="prefix__a"><stop offset="0" stop-color="#cfddee"/><stop offset="1" stop-color="#6793cd"/></linearGradient><linearGradient xlink:href="#prefix__b" id="prefix__d" x1="1.809" y1="29.95" x2="62.282" y2="29.95" gradientUnits="userSpaceOnUse"/><radialGradient xlink:href="#prefix__a" id="prefix__c" cx="42.63" cy="18.727" fx="42.63" fy="18.727" r="31.787" gradientUnits="userSpaceOnUse" gradientTransform="matrix(-.79604 0 0 -1 87.026 34.545)"/><filter id="prefix__e" color-interpolation-filters="sRGB"><feBlend mode="hard-light" in2="BackgroundImage"/></filter></defs><path d="M62.364 32.455c0 16.82-13.635 30.454-30.455 30.454S1.455 49.274 1.455 32.455C1.455 15.635 15.09 2 31.909 2c16.82 0 30.455 13.635 30.455 30.455z" fill="url(#prefix__c)" fill-rule="evenodd" stroke="#326fcb" stroke-width="2.665" stroke-linejoin="round"/><g fill="url(#prefix__d)"><path d="M12.455 53.09c1.274-.233.987-1.886 1.168-3.342.145-1.166.948-2.075.426-2.997-.842-1.487-3.384-1.577-3.958-2.024-.575-.446-3.883-5.078-5.83-6.605-1.54-1.205-1.82.723-2.08-.122s-.844-7.407.953-13.676c.378-1.319 4.026-2.086 4.382-3.332.3-1.054-1.37-.015-1.011-1.042.424-1.216 2.037-1.178 2.466-2.41.378-1.085-1.682-1.24-1.634-2.629.047-1.384 2.567-2.91 3.01-3.832.501-1.045 3.989 1.132 4.453.187 1.36-2.77 3.778-2.936 4.24-4.644 1.096-4.058-9.228 4.155-9.484 4.476-14.891 18.65-4.242 36.384-1.403 40.438.88 1.256 2.257 1.572 4.302 1.555zM27.636 21.09c.78-.268 3.842-.393 5.866.468 1.56.663 1.932 2.226 3.705 2.82 1.74.583 1.72-1.078 3.166-.926 1.98.208 5.2 1.91 5.627-.043.426-1.952-3.483-1.564-3.636-1.954-.154-.39-.908-2.201-1.368-2.22-.793-.033.053 1.647-.883 1.834-.87.173-3.564-3.909-3.75-4.114-.185-.206-3.658-1.03.013 1.393.66.436 1.067 1.248.99 1.617-.08.387-1.377-.798-2.011-1.183-.57-.345-1.25-2.174-2.842-1.636-2.98 1.006-4.41 3.69-6.307 4.235-1.803.52-2.182-2.659-1.607-3.39.732-.931 5.772.199 2.986-2.119-1.635-1.36.951-1.858 2.953-2.427.54-.154 1.48-2.698 2.653-2.95.921-.198 1.977 1.679 2.534 1.538 2.615-.66 3.627-.856 4.139-1.67.511-.813-1.033-1.027-1.215-2.222-.112-.731 1.31-1.785.344-1.87-1.17-.104-1.766 4.685-3.297 4.829-1.022.096-2.495-1.134-3.47-1.54-2.61-1.082-.402-1.892 1.95-3.163 1.747-.946 2.377-1.781 6.37-1.67 3.992.111 8.32 2.54 11.552 4.916 3.077 2.263 4.273 3.948 5.675 5.948 1.401 2 2.53 4.587 3.59 7.834 1.059 3.247 1.32 5.503.155 7.464-1.166 1.96-1.126 7.239-1.705 2.703-.688-5.384-2.823-4.993-3.65-5.465-1.684-.963-2.79-.44-1.184.595 2.066 1.334-1.2 3.66-2.462 4.24-4.15 1.904-2.566-.581-3.554-2.53-1.267-2.498-6.4-10.413-1.731.206 2.008 4.566 6.018 4.43 5.495 5.726-.522 1.296-2.494.151-4.636 5.454s.55 7.982-6.636 12.591c-7.187 4.61-7.005-12.805-7.104-14.599-.1-1.793-4.962-2.51-8.447-1.524-2.274.642-5.891-5.64-5.734-7.378.418-4.633 6.686-9.548 7.466-9.817z"/><path d="M26.626 12.262c.506-.183-.826 1.375.634 1.237 1.156-.11 2.903-.303 2.38-1.225-.841-1.487-1.264-.947-1.48-1.978-.216-1.03-1.366-1.84-1.537.148-.05.594-1.615.735-1.822 1.162-.206.426-.21 1.244.15 1.349.388.113 1.169-.51 1.675-.693zM23.213 6.849c.926-.389-.418-1.153-2.05-.078s-.675.79-.3.9c.374.108 1.424-.434 2.35-.822zM49.174 50.448c1.593.222.694-.95 2.25-4.039 1.556-3.09-1.088-.635-1.762.598-.674 1.233-2.082 3.218-.488 3.44z"/></g><path d="M62.364 32.455c0 16.82-13.635 30.454-30.455 30.454S1.455 49.274 1.455 32.455C1.455 15.635 15.09 2 31.909 2c16.82 0 30.455 13.635 30.455 30.455z" fill="none" stroke="#326fcb" stroke-width="2.665" stroke-linejoin="round"/><g transform="matrix(1.06737 0 0 1.06737 -15.05 -4.716)" filter="url(#prefix__e)"><path d="M22.89 41.01h40.372v12.317H22.89z" fill="#fff"/><path d="M45.993 53.327l.061-.142c.104-.258.211-.455.367-.672.164-.229.527-.566.677-.63.185-.08.415-.108.7-.085.245.019.996.13 1.299.192.23.046.568.05.727.009.306-.08.488-.236.574-.492.066-.196.065-.375-.002-.493-.09-.16-.075-.203.145-.39.108-.096.196-.182.197-.193 0-.065-.152-.317-.19-.32a.237.237 0 01-.104-.044l-.062-.046.129-.06c.178-.082.309-.21.309-.3a.585.585 0 00-.085-.211c-.089-.149-.11-.292-.062-.376.031-.056.089-.08.365-.15.23-.06.315-.123.349-.257.026-.115.013-.188-.063-.326a11.21 11.21 0 00-.582-.807c-.158-.183-.351-.5-.407-.67-.055-.169-.058-.18-.015-.395.086-.46.035-.839-.212-1.579-.184-.552-.233-.686-.289-.79-.104-.185-.09-.228.123-.385a1.27 1.27 0 00.209-.18c.064-.107-.01-.316-.13-.375-.077-.036-.12-.01-.197.119-.06.1-.085.117-.147.117-.104 0-.122-.04-.055-.12.075-.094.07-.11-.052-.124-.09-.011-.137-.043-.335-.224a2.308 2.308 0 00-.792-.5c-.162-.068-.217-.1-.16-.091.052.006.23.019.398.028.487.021.605-.037.718-.354.076-.216.114-.315-.064-.466l-.636-.535h14.563v12.317z" fill="#e2011c"/><path d="M33.575 53.327c-.106-.01-.197-.014-.204-.02-.011-.01.108-.079.655-.38.176-.096.248-.147.223-.16a2.326 2.326 0 00-.34-.033c-.248-.013-.32-.01-.393.021-.05.02-.247.074-.438.12-.476.112-.633.189-.787.379l-.058.073H22.89V41.01h18.541l-.359.212a3.612 3.612 0 00-.51.274c-.283.209-.662.686-.757.95-.036.097-.067.133-.173.199-.165.1-.36.292-.523.51-.22.296-.64.964-.722 1.15-.13.287-.118.505.07 1.364.083.378.172.762.199.854.026.09.055.246.064.343.016.175.029.213.142.427a.484.484 0 01.056.148c0 .022.022.054.051.07a.11.11 0 01.051.09c0 .04.06.119.191.25.3.297.518.576.518.664 0 .073-.117.091-.309.049-.222-.05-.404-.156-.684-.402-.12-.105-.216-.175-.216-.156 0 .018.08.116.18.216.198.2.23.254.187.326-.038.063-.13.082-.254.05-.144-.035-.226.015-.204.121.013.067.011.073-.031.06a2.205 2.205 0 00-.416-.075c-.147-.013-.158-.02-.244-.13-.067-.084-.12-.122-.19-.14-.26-.064-.909-.168-1.342-.211-.765-.076-.95-.082-1.316-.04-.282.03-.358.049-.511.118-.274.125-.747.517-.747.619 0 .047.104.032.222-.035.36-.2 1.598-.485 2.205-.507.3-.01.285.003-.078.063-.1.017-.335.071-.524.123-.19.052-.516.13-.725.174a6.663 6.663 0 00-.525.128l-.144.047.222.002c1.138.011 2.432.337 2.961.744.227.175.31.197.643.164.458-.043 1.049-.24 1.309-.435.113-.085.205-.12.205-.074 0 .078-.15.494-.214.596-.071.116-.075.131-.038.157.023.015.036.035.027.041-.009.009.009.022.04.03.087.026.065.05-.073.08-.134.032-.24.086-.24.123 0 .013.017.024.04.024.066 0 .017.043-.072.06-.06.013-.07.022-.044.037.027.015.027.021.002.021-.018 0-.033.024-.033.054 0 .037-.027.063-.08.084-.131.054-.096.082.084.067.091-.008.147-.008.125 0a8.45 8.45 0 00-.327.134c-.16.065-.367.144-.46.175-.107.034-.174.069-.18.095-.009.04.04.038.164-.005.023-.008.043-.004.043.007 0 .01-.274.153-.607.317-.336.164-.647.332-.696.373-.05.043-.109.077-.138.077-.027 0-.062.029-.08.06-.051.102-.042.115.08.096.18-.028.265-.026.276.006.006.017-.011.03-.04.03a.123.123 0 00-.083.035.17.17 0 01-.1.04.186.186 0 00-.124.085c-.029.041-.076.082-.105.088-.028.007.012.01.092.002 1.18-.08 1.4-.118 1.876-.336a4.55 4.55 0 001.128-.74c.086-.08.166-.144.177-.144.04 0 .019.131-.041.25-.105.203-.323.388-.772.658-.226.136-.47.265-.543.285-.226.064-.59.133-.972.183-1.243.162-1.72.285-2.19.567a.532.532 0 01-.185.078c-.022-.002-.082.026-.131.064-.14.11-.038.09.256-.045.302-.14.442-.162.204-.032-.291.16-.511.26-.729.26h-1.16zm-1.545-1.373c.047-.018.203-.097.347-.176.144-.078.314-.165.38-.191l.406-.166c.333-.136.822-.263.85-.222.01.014.082.03.162.035.11.007.13.013.084.028-.032.01-.059.028-.059.04 0 .042.246.03.349-.019.04-.02.132-.04.204-.05.089-.01.13-.025.13-.05 0-.027.022-.031.102-.019.11.018.348-.023.987-.168.433-.099.76-.198 1.048-.317l.209-.086-.209-.12c-.508-.294-1.018-.475-2.138-.758a2.755 2.755 0 01-.38-.114c-.017-.015-.009-.018.026-.007.112.037.197.043.197.015 0-.034-.084-.062-.25-.084-.152-.02-.25-.06-.145-.06.163 0-.117-.095-.432-.143-.232-.036-.246-.045-.149-.088.085-.036.176-.177.152-.233-.02-.05-.044-.043-.171.033a1.632 1.632 0 00-.59.638c-.07.142-.046.155.321.17.302.011.307.013.229.05a.823.823 0 01-.194.054c-.213.028-.33.12-.224.175.031.015.02.028-.058.062-.086.037-.09.045-.051.065.027.013.102.02.169.015.093-.006.136.002.18.037l.058.045-.116.065a.513.513 0 00-.16.142c-.024.041-.111.14-.195.22-.083.08-.152.162-.152.183 0 .02-.12.125-.269.231-.398.287-.57.446-.57.522 0 .041-.023.076-.063.1-.125.073-.19.157-.12.157a.55.55 0 00.113-.033zm3.07-.277a.955.955 0 00.254-.062l.074-.04-.127-.056-.126-.057-.127.046c-.07.026-.166.06-.214.076-.193.066-.218.155-.037.131a21.787 21.787 0 01.304-.037zm-4.444-1.078c.585-.552.998-.88 1.522-1.208.178-.111.304-.176.31-.159.017.045.093.032.217-.039.143-.082.214-.166.392-.455.185-.302.255-.377.522-.563.126-.086.309-.218.409-.289.144-.103.178-.12.167-.08-.01.03-.003.052.017.052.06 0 .343-.11.352-.136.015-.043-.27-.086-.48-.073-.163.008-.218.026-.42.123-.472.23-.814.479-1.466 1.067-.469.423-.838.708-1.025.788-.06.025-.106.082-.18.215-.142.263-.4.641-.642.947-.229.29-.278.388-.1.203a22.958 22.958 0 01.413-.401zm5.854 2.593c.702-.132.78-.142 1.273-.161.554-.022.624-.035.957-.176.107-.046.149-.054.164-.033.025.037.206-.051.56-.275a6.02 6.02 0 01.453-.26c.158-.077.206-.09.283-.077.081.014.106.004.21-.078.287-.229.533-.335.779-.335.073 0 .098.01.098.037 0 .025.015.034.04.025.073-.026.04.002-.148.13-.218.144-.198.19.024.05.214-.135.216-.135.216-.08 0 .03-.083.107-.231.22-.34.254-.58.465-.945.83l-.327.317h-4.154l.748-.136zm.007-4.825a.24.24 0 01.091 0c.026.006.005.01-.045.01-.051 0-.071-.004-.046-.01z" fill="#003189"/><path d="M48.762 47.466c-.115-.016-.056-.055.083-.055.14 0 .212-.048.212-.14 0-.043-.008-.05-.053-.037-.038.011-.064.002-.091-.03-.022-.03-.08-.052-.165-.062-.148-.018-.39-.149-.349-.188a.481.481 0 01.172-.035c.138-.01.146-.015.173-.091.022-.057.051-.084.1-.095.04-.008.1-.04.136-.07a3.02 3.02 0 01.262-.17c.182-.108.296-.222.256-.259-.043-.039-.436-.08-.623-.067a3.807 3.807 0 00-.74.14c-.158.054-.113.007.107-.11.295-.16.864-.306 1.178-.306.122 0 .531.086.58.123.096.071-.009.321-.184.446l-.074.052.12.117-.062.045a.241.241 0 01-.102.045c-.023 0-.08.033-.127.074-.071.062-.08.081-.06.131a.111.111 0 01-.005.106c-.017.03-.022.097-.01.174.022.158-.01.214-.138.246-.094.024-.44.029-.592.007z" fill="#7f7f7f"/></g><g transform="translate(0 -6)" opacity=".939"><circle r="12.727" cy="29.087" cx="24.113" fill="none" stroke="#000" stroke-width="12"/><path transform="matrix(.8593 .51147 -.48635 .87377 0 0)" stroke="#000" stroke-width="8.002" d="M31.74 28.49h5.949v17.286H31.74z"/><path transform="matrix(.8593 .51147 -.48635 .87377 0 0)" fill="#ccc" stroke="#ccc" stroke-width="4.001" d="M31.74 28.49h5.949v17.286H31.74z"/><circle r="12.727" cy="29.067" cx="24.271" fill="#fff" stroke="#ccc" stroke-width="8"/></g></svg>
