<svg xmlns="http://www.w3.org/2000/svg" width="1792" height="1792"><path fill="#636363" d="M785 1639c-3.609 0-6.232-.877-8.77-2.931-1.987-1.608-2.196-2.578-2.304-3.984l-.071-.927-30.457-200.144-14.64-4.78c-31.264-10.208-60.32-22.146-86.362-35.485l-13.989-7.165-154.354 117.134-.778.699c-1.419 1.277-3.512 2.583-8.276 2.583-1.274 0-3.645 0-7.321-3.677l-.442-.442-.464-.419c-82.166-74.341-136.457-129.487-161.373-163.915-1.659-2.418-2.4-5.061-2.4-8.547 0-1.661.333-4.329 3.218-8.296l.125-.173c9.712-13.597 26.623-35.641 50.263-65.52 24.121-30.486 42.519-54.51 54.683-71.404l9.149-12.708-7.44-13.778c-17.059-31.59-30.167-63.212-38.959-93.989l-4.431-15.51-198.859-29.34c-2.231-.352-3.462-1.097-4.861-2.933-2.023-2.655-2.886-5.152-2.886-8.35V783c0-1.662.333-4.329 3.218-8.295 1.37-1.884 2.538-2.881 3.147-3.08l200.958-30.252 4.594-15.094c8.799-28.912 21.264-58.297 37.048-87.341l7.4-13.615-8.901-12.684c-26.918-38.357-63.322-85.317-108.2-139.573-2.683-3.219-4.209-6.087-4.263-7.964.061-.387.607-3.126 4.423-8.683 16.488-22.769 48.659-57.796 95.63-104.119 55.39-54.625 74.094-63.015 77.863-64.251 2.798.292 6.103 1.893 9.841 4.768l150.603 116.772 14.22-7.433c27.925-14.597 57.203-26.824 87.02-36.339l15.346-4.897 1.882-15.998c10.483-89.107 20.027-150.553 28.367-182.63l.059-.228c1.884-7.539 3.86-9.063 11.746-9.063h222c3.609 0 6.232.877 8.771 2.932 1.984 1.607 2.193 2.578 2.303 3.986l.07.925 30.457 200.141 14.638 4.78c31.27 10.21 60.326 22.15 86.364 35.486l13.937 7.138 155.901-117.475 1.236-1.236c.459-.459 1.678-1.678 6.322-1.678.949 0 3.782 0 8.575 3.861 84.009 77.521 138.175 133.219 161.001 165.556l.75 1.063.857.979c-.005 0 .816 1.359.816 5.54 0 1.662-.334 4.329-3.219 8.296l-.124.173c-9.72 13.606-26.63 35.65-50.263 65.519-24.121 30.487-42.519 54.511-54.683 71.404l-8.992 12.488 7.1 13.653c16.576 31.877 29.805 63.478 39.318 93.923l4.655 14.896 198.426 30.36c2.244.345 3.485 1.088 4.896 2.94 2.021 2.654 2.885 5.151 2.885 8.348v222c0 1.661-.334 4.329-3.219 8.296-1.855 2.552-3.021 2.89-3.747 3.02l-199.63 30.214-4.987 14.173c-12.175 34.602-24.761 64.01-37.41 87.41l-7.339 13.578 8.851 12.646c23.579 33.686 59.96 80.618 108.133 139.495l.143.173c4.206 5.048 4.206 8.02 4.206 8.996 0 2.104-.432 3.887-2.581 6.275l-.858.952-.755 1.036c-17.123 23.464-49.542 58.77-96.359 104.936-54.927 54.165-73.557 62.512-77.331 63.747-1.796-.199-5.292-1.072-10.701-4.411l-149.705-117.161-14.29 7.471c-27.922 14.596-57.199 26.821-87.02 36.339l-15.346 4.897-1.883 15.998c-10.483 89.108-20.027 150.555-28.366 182.631l-.059.227c-1.885 7.539-3.86 9.063-11.746 9.063H785zM896 615c-77.208 0-144.053 27.697-198.678 82.322S615 818.792 615 896s27.697 144.053 82.322 198.678S818.793 1177 896 1177c77.208 0 144.053-27.697 198.678-82.322S1177 973.208 1177 896s-27.697-144.053-82.322-198.678S973.208 615 896 615z"/><path fill="#2D2D2D" d="M995.468 178l26.102 171.522 4.633 30.447 29.277 9.561c30.022 9.804 57.855 21.233 82.728 33.972l27.872 14.276 25.011-18.846 135.039-101.755c87.664 81.271 127.174 124.706 144.876 147.701-9.873 13.441-25.043 33.102-45.216 58.598-24.698 31.215-42.808 54.868-55.365 72.308l-17.983 24.977 14.198 27.306c15.898 30.574 28.561 60.803 37.638 89.847l9.31 29.791 30.852 4.72L1614 798.368V997.76l-170.482 25.803-29.71 4.496-9.974 28.345c-11.74 33.368-23.792 61.569-35.819 83.819l-14.68 27.158 17.703 25.291c23.022 32.89 57.91 78.029 103.751 134.24-17.349 22.302-47.2 54.368-88.896 95.485-32.735 32.281-51.105 46.834-60.42 53.263l-131.657-103.036-25.397-19.877-28.581 14.941c-26.648 13.93-54.587 25.597-83.039 34.678l-30.691 9.795-3.764 31.996c-9.387 79.78-17.934 136.81-25.45 169.842h-200.36l-26.101-171.522-4.634-30.448-29.278-9.56c-30.017-9.802-57.85-21.231-82.725-33.972l-27.979-14.33-25.041 19.002-133.956 101.655c-71.965-65.405-121.05-114.861-146.154-147.254 9.859-13.444 25.143-33.259 45.545-59.046 24.698-31.215 42.808-54.867 55.366-72.31l18.299-25.415-14.881-27.558c-16.2-30-28.622-59.937-36.919-88.978l-8.862-31.021-31.916-4.709L178 993.557V794.101l170.443-25.658 31.203-4.697 9.188-30.188c8.309-27.301 20.117-55.12 35.097-82.683l14.798-27.229-17.802-25.368c-26.06-37.135-60.792-82.105-103.306-133.761 12.859-16.491 38.179-45.296 87.987-94.417 32.305-31.859 50.721-46.6 60.288-53.296l132.465 102.709 25.361 19.664 28.439-14.866c26.652-13.932 54.59-25.6 83.039-34.678l30.692-9.795 3.764-31.996c9.385-79.78 17.933-136.81 25.45-169.842h200.362M896 1202c84.079 0 156.871-30.161 216.355-89.645C1171.839 1052.871 1202 980.079 1202 896s-30.161-156.872-89.645-216.355C1052.871 620.161 980.079 590 896 590s-156.872 30.161-216.355 89.645C620.161 739.128 590 811.921 590 896s30.161 156.871 89.645 216.355C739.129 1171.839 811.921 1202 896 1202m111-1074H785c-19.334 0-31.334 9.334-36 28-8.667 33.334-18.334 95.334-29 186-31.334 10-61.667 22.667-91 38L491 273c-8.667-6.666-17.334-10-26-10-14.667 0-46.167 23.834-94.5 71.5C322.166 382.167 289.333 418 272 442c-6 8.667-9 16.334-9 23 0 8 3.333 16 10 24 44.666 54 80.333 100 107 138-16.667 30.667-29.667 61.334-39 92l-186 28c-7.334 1.334-13.667 5.667-19 13-5.334 7.334-8 15-8 23v222c0 8.667 2.666 16.5 8 23.5 5.333 7 12.333 11.167 21 12.5l183 27c9.333 32.667 23 65.667 41 99-12 16.667-30 40.167-54 70.5-24 30.334-41 52.5-51 66.5-5.334 7.334-8 15-8 23 0 8.667 2.333 16.334 7 23 26 36 81 92 165 168 7.333 7.334 15.666 11 25 11 10 0 18.333-3 25-9l141-107c27.333 14 57.333 26.334 90 37l28 184c.666 8.667 4.5 15.834 11.5 21.5 7 5.667 15.166 8.5 24.5 8.5h222c19.333 0 31.333-9.333 36-28 8.666-33.333 18.333-95.333 29-186 31.333-10 61.666-22.666 91-38l138 108c9.333 6 18 9 26 9 14.666 0 46-23.666 94-71 48-47.333 81-83.333 99-108 6-6.666 9-14.333 9-23 0-8.666-3.334-17-10-25-48-58.666-83.667-104.666-107-138 13.333-24.666 26.333-55 39-91l185-28c8-1.333 14.666-5.666 20-13 5.333-7.333 8-15 8-23V787c0-8.666-2.667-16.5-8-23.5-5.334-7-12.334-11.166-21-12.5l-183-28c-10-32-23.667-64.666-41-98 12-16.666 30-40.166 54-70.5 24-30.333 41-52.5 51-66.5 5.333-7.333 8-15 8-23 0-9.333-2.334-16.666-7-22-24-34-79-90.666-165-170-8-6.666-16.334-10-25-10-10 0-18 3-24 9l-142 107c-27.334-14-57.334-26.333-90-37l-28-184c-.667-8.666-4.5-15.833-11.5-21.5-7-5.666-15.167-8.5-24.5-8.5zM896 1152c-70.667 0-131-25-181-75s-75-110.333-75-181c0-70.666 25-131 75-181s110.333-75 181-75c70.666 0 131 25 181 75s75 110.334 75 181c0 70.667-25 131-75 181s-110.334 75-181 75z"/></svg>
