<svg xmlns="http://www.w3.org/2000/svg" width="1792" height="1792"><circle fill="#558919" stroke="#000" stroke-miterlimit="10" cx="896" cy="896" r="768"/><path fill="#1860A0" d="M896 128c139.333 0 267.833 34.334 385.5 103 117.666 68.667 210.833 161.834 279.5 279.5 68.666 117.667 103 246.167 103 385.5 0 139.334-34.334 267.834-103 385.5-68.667 117.667-161.834 210.834-279.5 279.5-117.667 68.667-246.167 103-385.5 103-139.334 0-267.834-34.333-385.5-103-117.667-68.666-210.834-161.833-279.5-279.5-68.667-117.666-103-246.166-103-385.5 0-139.333 34.333-267.833 103-385.5C299.666 392.834 392.833 299.667 510.5 231 628.166 162.334 756.666 128 896 128zm274 521c-1.334.667-4.5 3.834-9.5 9.5-5 5.667-9.5 8.834-13.5 9.5 1.333 0 2.833-1.666 4.5-5 1.666-3.333 3.333-7 5-11 1.666-4 2.833-6.333 3.5-7 4-4.666 11.333-9.666 22-15 9.333-4 26.666-8 52-12 22.666-5.333 39.666-1.666 51 11-1.334-1.333 1.833-5.666 9.5-13 7.666-7.333 12.5-11.333 14.5-12 2-1.333 7-2.833 15-4.5 8-1.666 13-4.166 15-7.5l2-22c-8 .667-13.834-1.666-17.5-7-3.667-5.333-5.834-12.333-6.5-21 0 1.334-2 4-6 8 0-4.666-1.5-7.333-4.5-8-3-.666-6.834-.333-11.5 1-4.667 1.334-7.667 1.667-9 1-6.667-2-11.667-4.5-15-7.5-3.334-3-6-8.5-8-16.5s-3.334-13-4-15c-1.334-3.333-4.5-6.833-9.5-10.5-5-3.666-8.167-7.166-9.5-10.5-.667-1.333-1.5-3.166-2.5-5.5-1-2.333-2-4.5-3-6.5s-2.334-3.833-4-5.5c-1.667-1.666-3.5-2.5-5.5-2.5s-4.334 1.667-7 5a195.383 195.383 0 00-7.5 10c-2.334 3.334-3.834 5-4.5 5-2-1.333-4-1.833-6-1.5-2 .334-3.5.667-4.5 1-1 .334-2.5 1.334-4.5 3-2 1.667-3.667 2.834-5 3.5-2 1.334-4.834 2.334-8.5 3-3.667.667-6.5 1.334-8.5 2 10-3.333 9.666-7-1-11-6.667-2.666-12-3.666-16-3 6-2.666 8.5-6.666 7.5-12-1-5.333-3.834-10-8.5-14h5c-.667-2.666-3.5-5.5-8.5-8.5s-10.834-5.833-17.5-8.5c-6.667-2.666-11-4.666-13-6-5.334-3.333-16.667-6.5-34-9.5-17.334-3-28.334-3.166-33-.5-3.334 4-4.834 7.5-4.5 10.5.333 3 1.666 7.667 4 14 2.333 6.334 3.5 10.5 3.5 12.5.666 4-1.167 8.334-5.5 13-4.334 4.667-6.5 8.667-6.5 12 0 4.667 4.666 9.834 14 15.5 9.333 5.667 12.666 12.834 10 21.5-2 5.334-7.334 10.667-16 16-8.667 5.334-14 9.334-16 12-3.334 5.334-3.834 11.5-1.5 18.5 2.333 7 5.833 12.5 10.5 16.5 1.333 1.334 1.833 2.667 1.5 4-.334 1.334-1.5 2.834-3.5 4.5-2 1.667-3.834 3-5.5 4-1.667 1-3.834 2.167-6.5 3.5l-3 2c-7.334 3.334-14.167 1.334-20.5-6-6.334-7.333-10.834-16-13.5-26-4.667-16.666-10-26.666-16-30-15.334-5.333-25-5-29 1-3.334-8.666-17-17.333-41-26-16.667-6-36-7.333-58-4 4-.666 4-5.666 0-15-4.667-10-11-14-19-12 2-4 3.333-9.833 4-17.5.666-7.666 1-12.166 1-13.5 2-8.666 6-16.333 12-23 .666-.666 3-3.5 7-8.5s7.166-9.5 9.5-13.5c2.333-4 2.5-6 .5-6 23.333 2.667 40-1 50-11 3.333-3.333 7.166-9 11.5-17 4.333-8 7.833-13.666 10.5-17 6-4 10.666-5.833 14-5.5 3.333.334 8.166 2.167 14.5 5.5 6.333 3.334 11.166 5 14.5 5 9.333.667 14.5-3 15.5-11s-1.5-14.666-7.5-20c8 .667 9-5 3-17-3.334-4.666-6-7.666-8-9-8-2.666-17-1-27 5-5.334 2.667-4.667 5.334 2 8-.667-.666-3.834 2.834-9.5 10.5-5.667 7.667-11.167 13.5-16.5 17.5-5.334 4-10.667 2.334-16-5-.667-.666-2.5-5.166-5.5-13.5-3-8.333-6.167-12.833-9.5-13.5-5.334 0-10.667 5-16 15 2-5.333-1.667-10.333-11-15-9.334-4.666-17.334-7.333-24-8 12.666-8 10-17-8-27-4.667-2.666-11.5-4.333-20.5-5-9-.666-15.5.667-19.5 4-3.334 4.667-5.167 8.5-5.5 11.5-.334 3 1.333 5.667 5 8 3.666 2.334 7.166 4.167 10.5 5.5 3.333 1.334 7.166 2.667 11.5 4 4.333 1.334 7.166 2.334 8.5 3 9.333 6.667 12 11.334 8 14-1.334.667-4.167 1.834-8.5 3.5A942.246 942.246 0 00817 332c-3.334 1.334-5.334 2.667-6 4-2 2.667-2 7.334 0 14 2 6.667 1.333 11.334-2 14-3.334-3.333-6.334-9.166-9-17.5-2.667-8.333-5-13.833-7-16.5 4.666 6-3.667 8-25 6l-10-1c-2.667 0-8 .667-16 2-8 1.334-14.834 1.667-20.5 1-5.667-.666-10.167-3.333-13.5-8-2.667-5.333-2.667-12 0-20 .666-2.666 2-3.333 4-2-2.667-2-6.334-5.166-11-9.5-4.667-4.333-8-7.166-10-8.5-30.667 10-62 23.667-94 41 4 .667 8 .334 12-1 3.333-1.333 7.666-3.5 13-6.5 5.333-3 8.666-4.833 10-5.5 22.666-9.333 36.666-11.666 42-7l5-5c9.333 10.667 16 19 20 25-4.667-2.666-14.667-3-30-1-13.334 4-20.667 8-22 12 4.666 8 6.333 14 5 18-2.667-2-6.5-5.333-11.5-10-5-4.666-9.834-8.333-14.5-11a39.945 39.945 0 00-15-5c-10.667 0-18 .334-22 1-97.334 53.334-175.667 127.334-235 222 4.666 4.667 8.666 7.334 12 8 2.666.667 4.333 3.667 5 9 .666 5.334 1.5 9 2.5 11s4.833 1 11.5-3c6 5.334 7 11.667 3 19 .666-.666 15.333 8.334 44 27 12.666 11.334 19.666 18.334 21 21 2 7.334-1.334 13.334-10 18-.667-1.333-3.667-4.333-9-9-5.334-4.666-8.334-6-9-4-2 3.334-1.834 9.5.5 18.5 2.333 9 5.833 13.167 10.5 12.5-4.667 0-7.834 5.334-9.5 16-1.667 10.667-2.5 22.5-2.5 35.5s-.334 20.834-1 23.5l2 1c-2 8-.167 19.5 5.5 34.5 5.666 15 12.833 21.5 21.5 19.5-8.667 2-2 16.334 20 43 4 5.334 6.666 8.334 8 9 2 1.334 6 3.834 12 7.5 6 3.667 11 7 15 10s7.333 6.5 10 10.5c2.666 3.334 6 10.834 10 22.5 4 11.667 8.666 19.5 14 23.5-1.334 4 1.833 10.667 9.5 20 7.666 9.334 11.166 17 10.5 23-.667 0-1.5.334-2.5 1-1 .667-1.834 1-2.5 1 2 4.667 7.166 9.334 15.5 14 8.333 4.667 13.5 9 15.5 13 .666 2 1.333 5.334 2 10 .666 4.667 1.666 8.334 3 11 1.333 2.667 4 3.334 8 2 1.333-13.333-6.667-34-24-62-10-16.666-15.667-26.333-17-29-2-3.333-3.834-8.5-5.5-15.5-1.667-7-3.167-11.833-4.5-14.5 1.333 0 3.333.5 6 1.5 2.666 1 5.5 2.167 8.5 3.5 3 1.334 5.5 2.667 7.5 4 2 1.334 2.666 2.334 2 3-2 4.667-1.334 10.5 2 17.5 3.333 7 7.333 13.167 12 18.5 4.666 5.334 10.333 11.667 17 19 6.666 7.334 10.666 11.667 12 13 4 4 8.666 10.5 14 19.5 5.333 9 5.333 13.5 0 13.5 6 0 12.666 3.334 20 10 7.333 6.667 13 13.334 17 20 3.333 5.334 6 14 8 26s3.666 20 5 24c1.333 4.667 4.166 9.167 8.5 13.5 4.333 4.334 8.5 7.5 12.5 9.5l16 8 13 7c3.333 1.334 9.5 4.834 18.5 10.5 9 5.667 16.166 9.5 21.5 11.5 6.666 2.667 12 4 16 4s8.833-.833 14.5-2.5c5.666-1.666 10.166-2.833 13.5-3.5 10-1.333 19.666 3.667 29 15 9.333 11.334 16.333 18.334 21 21 24 12.667 42.333 16.334 55 11-1.334.667-1.167 3.167.5 7.5 1.666 4.334 4.333 9.5 8 15.5 3.666 6 6.666 10.834 9 14.5 2.333 3.667 4.166 6.5 5.5 8.5 3.333 4 9.333 9 18 15 8.666 6 14.666 11 18 15 4-2.666 6.333-5.666 7-9-2 5.334.333 12 7 20 6.666 8 12.666 11.334 18 10 9.333-2 14-12.666 14-32-20.667 10-37 4-49-18 0-.666-.834-2.5-2.5-5.5-1.667-3-3-5.833-4-8.5-1-2.666-1.834-5.5-2.5-8.5-.667-3-.667-5.5 0-7.5.666-2 2.333-3 5-3 6 0 9.333-1.166 10-3.5.666-2.333 0-6.5-2-12.5s-3.334-10.333-4-13c-.667-5.333-4.334-12-11-20-6.667-8-10.667-13-12-15-3.334 6-8.667 8.667-16 8-7.334-.666-12.667-3.666-16-9 0 .667-.5 2.5-1.5 5.5s-1.5 5.167-1.5 6.5c-8.667 0-13.667-.333-15-1 .666-2 1.5-7.833 2.5-17.5 1-9.666 2.166-17.166 3.5-22.5.666-2.666 2.5-6.666 5.5-12 3-5.333 5.5-10.166 7.5-14.5 2-4.333 3.333-8.5 4-12.5.666-4-.834-7.166-4.5-9.5-3.667-2.333-9.5-3.166-17.5-2.5-12.667.667-21.334 7.334-26 20-.667 2-1.667 5.5-3 10.5-1.334 5-3 8.834-5 11.5-2 2.667-5 5-9 7-4.667 2-12.667 2.667-24 2-11.334-.666-19.334-2.333-24-5-8.667-5.333-16.167-15-22.5-29-6.334-14-9.5-26.333-9.5-37 0-6.666.833-15.5 2.5-26.5 1.666-11 2.666-19.333 3-25 .333-5.666-1.5-13.833-5.5-24.5 2-1.333 5-4.5 9-9.5s7.333-8.5 10-10.5c1.333-.666 2.833-1.166 4.5-1.5 1.666-.333 3.166-.333 4.5 0 1.333.334 2.666-.166 4-1.5 1.333-1.333 2.333-3.333 3-6-.667-.666-2-1.666-4-3-2-2-3.334-3-4-3 4.666 2 14.166 1.5 28.5-1.5 14.333-3 23.5-2.5 27.5 1.5 10 7.334 17.333 6.667 22-2 0-.666-.834-3.833-2.5-9.5-1.667-5.666-1.834-10.166-.5-13.5 3.333 18 13 21 29 9 2 2 7.166 3.667 15.5 5 8.333 1.334 14.166 3 17.5 5 2 1.334 4.333 3.167 7 5.5 2.666 2.334 4.5 3.834 5.5 4.5 1 .667 2.666.5 5-.5 2.333-1 5.166-3.166 8.5-6.5 6.666 9.334 10.666 17.334 12 24 7.333 26.667 13.666 41.334 19 44 4.666 2 8.333 2.667 11 2 2.666-.666 4.166-3.833 4.5-9.5.333-5.666.333-10.333 0-14-.334-3.666-.834-7.833-1.5-12.5l-1-8v-18l-1-8c-10-2-16.167-6-18.5-12-2.334-6-1.834-12.166 1.5-18.5 3.333-6.333 8.333-12.5 15-18.5.666-.666 3.333-1.833 8-3.5 4.666-1.666 9.833-3.833 15.5-6.5 5.666-2.666 9.833-5.333 12.5-8 14-12.666 19-24.333 15-35 4.666 0 8.333-3 11-9-.667 0-2.334-1-5-3-2.667-2-5.167-3.666-7.5-5-2.334-1.333-3.834-2-4.5-2 6-3.333 6.666-8.666 2-16 3.333-2 5.833-5.666 7.5-11 1.666-5.333 4.166-8.666 7.5-10 6 8 13 8.667 21 2 4.666-5.333 5-10.666 1-16 3.333-4.666 10.166-8.166 20.5-10.5 10.333-2.333 16.5-5.5 18.5-9.5 4.666 1.334 7.333.667 8-2 .666-2.666 1-6.666 1-12 0-5.333 1-9.333 3-12 2.666-3.333 7.666-6.333 15-9 7.333-2.666 11.666-4.333 13-5l17-11c2-2.666 2-4 0-4 12 1.334 22.333-2.333 31-11 6.666-7.333 4.666-14-6-20 2-4 1-7.166-3-9.5-4-2.333-9-4.166-15-5.5 2-.666 5.833-.833 11.5-.5 5.666.334 9.166-.166 10.5-1.5 10-6.666 7.666-12-7-16-11.334-3.333-25.667.667-43 12zm-163 877c137.333-24 254.333-87 351-189-2-2-6.167-3.5-12.5-4.5-6.334-1-10.5-2.166-12.5-3.5-12-4.666-20-7.333-24-8 .666-4.666-.167-9-2.5-13-2.334-4-5-7-8-9s-7.167-4.666-12.5-8c-5.334-3.333-9-5.666-11-7-1.334-1.333-3.667-3.333-7-6-3.334-2.666-5.667-4.5-7-5.5-1.334-1-3.834-2.5-7.5-4.5-3.667-2-6.5-2.666-8.5-2-2 .667-5.334 1-10 1l-3 1c-2 .667-3.834 1.5-5.5 2.5-1.667 1-3.5 2-5.5 3s-3.334 2-4 3c-.667 1-.667 1.834 0 2.5-14-11.333-26-18.666-36-22-3.334-.666-7-2.5-11-5.5s-7.5-5.333-10.5-7c-3-1.666-6.334-2.166-10-1.5-3.667.667-7.5 3-11.5 7-3.334 3.334-5.334 8.334-6 15-.667 6.667-1.334 11-2 13-4.667-3.333-4.667-9.166 0-17.5 4.666-8.333 5.333-14.5 2-18.5-2-4-5.5-5.5-10.5-4.5s-9 2.5-12 4.5-6.834 4.834-11.5 8.5c-4.667 3.667-7.667 5.834-9 6.5-1.334.667-4.167 2.5-8.5 5.5-4.334 3-7.167 5.5-8.5 7.5-2 2.667-4 6.667-6 12-2 5.334-3.667 9-5 11-1.334-2.666-5.167-4.833-11.5-6.5-6.334-1.666-9.5-3.5-9.5-5.5 1.333 6.667 2.666 18.334 4 35 1.333 16.667 3 29.334 5 38 4.666 20.667.666 36.667-12 48-18 16.667-27.667 30-29 40-2.667 14.667 1.333 23.334 12 26 0 4.667-2.667 11.5-8 20.5-5.334 9-7.667 16.167-7 21.5 0 4 .666 9.334 2 16z"/></svg>
