<?xml version="1.0" encoding="UTF-8" standalone="no"?>
<!-- Created with Inkscape (http://www.inkscape.org/) -->

<svg
   xmlns:dc="http://purl.org/dc/elements/1.1/"
   xmlns:cc="http://creativecommons.org/ns#"
   xmlns:rdf="http://www.w3.org/1999/02/22-rdf-syntax-ns#"
   xmlns:svg="http://www.w3.org/2000/svg"
   xmlns="http://www.w3.org/2000/svg"
   xmlns:sodipodi="http://sodipodi.sourceforge.net/DTD/sodipodi-0.dtd"
   xmlns:inkscape="http://www.inkscape.org/namespaces/inkscape"
   id="svg3137"
   version="1.1"
   inkscape:version="0.48.4 r9939"
   width="68"
   height="68"
   sodipodi:docname="note.png">
  <metadata
     id="metadata3143">
    <rdf:RDF>
      <cc:Work
         rdf:about="">
        <dc:format>image/svg+xml</dc:format>
        <dc:type
           rdf:resource="http://purl.org/dc/dcmitype/StillImage" />
        <dc:title></dc:title>
      </cc:Work>
    </rdf:RDF>
  </metadata>
  <defs
     id="defs3141" />
  <sodipodi:namedview
     pagecolor="#ffffff"
     bordercolor="#666666"
     borderopacity="1"
     objecttolerance="10"
     gridtolerance="10"
     guidetolerance="10"
     inkscape:pageopacity="0"
     inkscape:pageshadow="2"
     inkscape:window-width="1254"
     inkscape:window-height="848"
     id="namedview3139"
     showgrid="false"
     inkscape:zoom="6.9411765"
     inkscape:cx="24.553937"
     inkscape:cy="21.805116"
     inkscape:window-x="49"
     inkscape:window-y="24"
     inkscape:window-maximized="0"
     inkscape:current-layer="svg3137" />
  <path
     style="fill:#aa0000"
     d="m 2,54.842199 c 0,-0.63679 3.15,-4.646372 7,-8.910182 L 16,38.179635 16,24.089818 16,10 39,10 62,10 62,28.5 62,47 42.644636,47 23.289272,47 13,51.5 C 1.382901,56.580724 2,56.393226 2,54.842199 z m 9.622882,-4.980421 C 14.305297,48.685756 20.985613,45.330149 21.832964,45.139322 23.689836,44.721148 22.434323,45 39.074461,45 L 60.049543,45 59.774771,28.75 59.5,12.5 38.75,12.229712 18,11.959423 18,26.774226 17.796257,41.283414 c -1.568627,1.349914 -0.03554,0.0056 -4.705883,4.049743 -4.4994194,3.896138 -7.4622389,6.717779 -6.4324516,6.717779 0.2724295,0 2.2825444,-1.013136 4.9649596,-2.189158 z M 29.918114,34.971311 c 3.688437,-0.191858 10.276573,0.095 14.288136,0.285336 C 48.217812,35.446945 45.2,36.756461 37.5,36.758022 29.8,36.759622 20.106795,35.163207 23.795233,34.971349 z M 28.75,27.262758 c 2.8875,-0.202002 19.426059,0.0141 22.313559,0.216102 2.8875,0.202003 -11.000423,1.447785 -16.775423,1.447785 -5.775,0 -8.425636,-1.461884 -5.538136,-1.663887 z m -3.000904,-8.150957 c 4.287638,-0.187904 16.44018,-0.546927 20.54661,0.146568 3.962362,0.189351 2.111074,1.639701 -7.003333,1.350164 -8.245841,-0.261945 -17.830915,-1.308829 -13.543277,-1.496732 z"
     id="path3147"
     inkscape:connector-curvature="0"
     sodipodi:nodetypes="sscccccccccssssscccccccssscssccssssscss" />
</svg>
